ply
format ascii 1.0
comment LieDAR raw capture, world space, metres, +Y up
comment vertex colour = majority mesh classification (see CaptureFormat.classificationColor)
element vertex 810
property float x
property float y
property float z
property uchar red
property uchar green
property uchar blue
element face 814
property list uchar int vertex_indices
end_header
1.2719998 0.442 -0.01999998 230 138 46
1.6859998 0.442 -0.01999998 230 138 46
1.6859998 0.874 -0.01999998 230 138 46
1.2719998 0.874 -0.01999998 230 138 46
1.6859998 1.3060001 -0.01999998 230 138 46
1.2719998 1.3060001 -0.01999998 128 128 128
1.6859998 1.738 -0.01999998 128 128 128
1.6859998 0.00999999 -0.01999998 128 128 128
2.0999997 0.00999999 -0.01999998 128 128 128
2.0999997 0.44200003 -0.01999998 230 138 46
1.6859998 0.44200003 -0.01999998 230 138 46
1.2719998 0.44200003 -0.01999998 230 138 46
1.6859998 0.8740001 -0.01999998 230 138 46
1.2719998 0.8740001 -0.01999998 230 138 46
2.0999997 0.8740001 -0.01999998 230 138 46
2.5499995 0.00999999 -0.01999998 128 128 128
2.5499995 0.41999996 -0.01999998 128 128 128
2.0999997 0.41999996 -0.01999998 220 60 60
2.9999995 0.00999999 -0.01999998 128 128 128
2.9999995 0.41999996 -0.01999998 128 128 128
2.5499995 0.8299999 -0.01999998 220 60 60
2.0999997 0.8299999 -0.01999998 220 60 60
2.9999995 0.8299999 -0.01999998 128 128 128
1.6859998 0.00999999 -0.01999998 128 128 128
2.0999997 0.00999999 -0.01999998 220 60 60
2.0999997 0.442 -0.01999998 230 138 46
1.6859998 0.442 -0.01999998 230 138 46
1.2719998 0.442 -0.01999998 230 138 46
1.6859998 0.874 -0.01999998 230 138 46
1.2719998 0.874 -0.01999998 230 138 46
2.0999997 0.874 -0.01999998 230 138 46
1.6859998 1.3060001 -0.01999998 230 138 46
1.2719998 1.3060001 -0.01999998 230 138 46
2.0999997 1.3060001 -0.01999998 230 138 46
1.6859998 1.738 -0.01999998 230 138 46
2.0999997 1.738 -0.01999998 230 138 46
2.5499995 0.00999999 -0.01999998 128 128 128
2.5499995 0.42 -0.01999998 128 128 128
2.0999997 0.42 -0.01999998 128 128 128
2.9999995 0.00999999 -0.01999998 128 128 128
2.9999995 0.42 -0.01999998 128 128 128
2.5499995 0.83 -0.01999998 128 128 128
2.0999997 0.83 -0.01999998 128 128 128
2.9999995 0.83 -0.01999998 220 60 60
2.5499995 1.24 -0.01999998 128 128 128
2.0999997 1.24 -0.01999998 220 60 60
2.9999995 1.24 -0.01999998 128 128 128
2.5499995 1.65 -0.01999998 220 60 60
2.0999997 1.65 -0.01999998 220 60 60
2.9999995 1.65 -0.01999998 128 128 128
1.2719998 1.3060001 -0.01999998 128 128 128
1.6859998 1.3060001 -0.01999998 128 128 128
1.6859998 1.738 -0.01999998 128 128 128
2.0999997 1.3060001 -0.01999998 128 128 128
2.0999997 1.738 -0.01999998 128 128 128
2.0999997 2.17 -0.01999998 128 128 128
2.0999997 1.24 -0.01999998 220 60 60
2.5499995 1.24 -0.01999998 220 60 60
2.5499995 1.65 -0.01999998 220 60 60
2.0999997 1.65 -0.01999998 220 60 60
2.9999995 1.24 -0.01999998 128 128 128
2.9999995 1.65 -0.01999998 220 60 60
2.5499995 2.06 -0.01999998 220 60 60
2.0999997 2.06 -0.01999998 220 60 60
2.9999995 2.06 -0.01999998 128 128 128
2.0999997 0.00999999 -0.01999998 220 60 60
2.5499995 0.00999999 -0.01999998 220 60 60
2.5499995 0.41999996 -0.01999998 220 60 60
2.0999997 0.41999996 -0.01999998 128 128 128
2.9999995 0.00999999 -0.01999998 230 138 46
2.9999995 0.41999996 -0.01999998 220 60 60
2.5499995 0.8299999 -0.01999998 128 128 128
2.0999997 0.8299999 -0.01999998 128 128 128
2.9999995 0.8299999 -0.01999998 128 128 128
3.4899995 0.00999999 -0.01999998 230 138 46
3.4899995 0.44200003 -0.01999998 128 128 128
2.9999995 0.44200003 -0.01999998 230 138 46
3.9799993 0.00999999 -0.01999998 230 138 46
3.9799993 0.44200003 -0.01999998 230 138 46
3.4899995 0.8740001 -0.01999998 128 128 128
2.9999995 0.8740001 -0.01999998 230 138 46
3.9799993 0.8740001 -0.01999998 128 128 128
2.988 0.00999999 -0.01999998 46 138 230
3.4809997 0.00999999 0.42888892 46 138 230
3.4809997 0.00999999 -0.01999998 46 138 230
3.974 0.00999999 0.42888892 46 138 230
3.974 0.00999999 -0.01999998 46 138 230
3.974 0.00999999 0.8777778 46 138 230
3.4809997 0.00999999 0.8777778 46 138 230
2.988 0.00999999 -0.02000001 128 128 128
3.4809997 0.00999999 0.4288889 128 128 128
3.4809997 0.00999999 -0.02000001 46 138 230
3.974 0.00999999 0.4288889 46 138 230
3.974 0.00999999 -0.02000001 46 138 230
3.974 0.00999999 0.8777778 46 138 230
3.4809997 0.00999999 0.8777778 128 128 128
3.974 0.00999999 1.3266667 46 138 230
3.6299999 0.0 4.04 128 128 128
3.23 0.0 4.04 128 128 128
3.23 0.38666672 4.04 128 128 128
3.6299999 0.38666672 4.04 230 138 46
3.23 0.77333343 4.04 230 138 46
3.6299999 0.77333343 4.04 230 138 46
2.958 0.0 3.5911112 128 128 128
2.958 0.0 4.04 128 128 128
3.4509997 0.0 4.04 128 128 128
3.4509997 0.0 3.5911112 46 138 230
3.944 0.0 4.04 46 138 230
2.0999997 0.00999999 -0.01999998 220 60 60
2.5499995 0.00999999 -0.01999998 220 60 60
2.5499995 0.42 -0.01999998 220 60 60
2.0999997 0.42 -0.01999998 220 60 60
2.9999995 0.00999999 -0.01999998 230 138 46
2.9999995 0.42 -0.01999998 220 60 60
2.5499995 0.83 -0.01999998 220 60 60
2.0999997 0.83 -0.01999998 220 60 60
2.9999995 0.83 -0.01999998 220 60 60
2.5499995 1.24 -0.01999998 128 128 128
2.0999997 1.24 -0.01999998 220 60 60
2.9999995 1.24 -0.01999998 128 128 128
2.5499995 1.65 -0.01999998 128 128 128
2.0999997 1.65 -0.01999998 128 128 128
2.9999995 1.65 -0.01999998 128 128 128
3.4899995 0.00999999 -0.01999998 230 138 46
3.4899995 0.442 -0.01999998 230 138 46
2.9999995 0.442 -0.01999998 230 138 46
3.9799993 0.00999999 -0.01999998 128 128 128
3.9799993 0.442 -0.01999998 230 138 46
3.4899995 0.874 -0.01999998 230 138 46
2.9999995 0.874 -0.01999998 230 138 46
3.9799993 0.874 -0.01999998 230 138 46
3.4899995 1.3060001 -0.01999998 230 138 46
2.9999995 1.3060001 -0.01999998 230 138 46
3.9799993 1.3060001 -0.01999998 128 128 128
3.4899995 1.738 -0.01999998 230 138 46
2.9999995 1.738 -0.01999998 230 138 46
3.9799993 1.738 -0.01999998 230 138 46
3.33 0.75 2.12 128 128 128
3.73 0.75 2.4699998 200 200 60
3.73 0.75 2.12 200 200 60
3.33 0.75 2.4699998 128 128 128
2.93 0.75 2.4699998 128 128 128
3.33 0.75 2.82 128 128 128
2.93 0.75 2.82 128 128 128
3.73 0.75 2.82 200 200 60
3.33 0.375 2.12 46 138 230
3.73 0.375 2.12 200 200 60
3.33 0.75 2.12 128 128 128
3.73 0.75 2.4699998 200 200 60
3.73 0.75 2.12 200 200 60
3.33 0.75 2.4699998 200 200 60
2.93 0.75 2.4699998 128 128 128
3.33 0.75 2.82 128 128 128
2.93 0.75 2.82 128 128 128
3.73 0.75 2.82 46 138 230
3.6299999 0.38666672 4.04 230 138 46
3.23 0.38666672 4.04 230 138 46
3.23 0.77333343 4.04 230 138 46
3.6299999 0.77333343 4.04 230 138 46
3.23 1.1600001 4.04 128 128 128
3.6299999 1.1600001 4.04 128 128 128
3.23 1.5600001 4.04 128 128 128
3.6299999 1.5600001 4.04 128 128 128
3.23 1.96 4.04 128 128 128
3.6299999 1.96 4.04 60 220 220
2.0999997 1.24 -0.01999998 128 128 128
2.5499995 1.24 -0.01999998 128 128 128
2.5499995 1.65 -0.01999998 220 60 60
2.0999997 1.65 -0.01999998 220 60 60
2.9999995 1.24 -0.01999998 128 128 128
2.9999995 1.65 -0.01999998 128 128 128
2.5499995 2.06 -0.01999998 220 60 60
2.0999997 2.06 -0.01999998 128 128 128
2.9999995 2.06 -0.01999998 220 60 60
2.9999995 1.3060001 -0.01999998 230 138 46
3.4899995 1.3060001 -0.01999998 230 138 46
3.4899995 1.738 -0.01999998 230 138 46
2.9999995 1.738 -0.01999998 230 138 46
3.9799993 1.3060001 -0.01999998 230 138 46
3.9799993 1.738 -0.01999998 230 138 46
3.4899995 2.17 -0.01999998 230 138 46
2.9999995 2.17 -0.01999998 128 128 128
3.9799993 2.17 -0.01999998 230 138 46
3.6299999 1.1600001 4.04 60 220 220
3.23 1.1600001 4.04 60 220 220
3.23 1.5600001 4.04 60 220 220
3.6299999 1.5600001 4.04 60 220 220
3.23 1.96 4.04 128 128 128
3.6299999 1.96 4.04 128 128 128
2.9999995 0.00999999 -0.01999998 128 128 128
3.4899995 0.00999999 -0.01999998 128 128 128
3.4899995 0.44200003 -0.01999998 128 128 128
2.9999995 0.44200003 -0.01999998 230 138 46
3.9799993 0.00999999 -0.01999998 128 128 128
3.9799993 0.44200003 -0.01999998 128 128 128
4.4699993 0.00999999 -0.01999998 230 138 46
4.4699993 0.44200003 -0.01999998 128 128 128
4.959999 0.00999999 -0.01999998 230 138 46
4.959999 0.44200003 -0.01999998 230 138 46
3.4899995 0.8740001 -0.01999998 230 138 46
2.9999995 0.8740001 -0.01999998 230 138 46
3.9799993 0.8740001 -0.01999998 128 128 128
4.4699993 0.8740001 -0.01999998 230 138 46
4.959999 0.8740001 -0.01999998 128 128 128
2.988 0.00999999 -0.01999998 46 138 230
3.4809997 0.00999999 0.42888892 46 138 230
3.4809997 0.00999999 -0.01999998 46 138 230
3.974 0.00999999 0.42888892 46 138 230
3.974 0.00999999 -0.01999998 128 128 128
4.467 0.00999999 0.42888892 46 138 230
4.467 0.00999999 -0.01999998 46 138 230
4.96 0.00999999 0.42888892 46 138 230
3.974 0.00999999 0.8777778 46 138 230
3.4809997 0.00999999 0.8777778 46 138 230
4.467 0.00999999 0.8777778 46 138 230
4.96 0.00999999 0.8777778 46 138 230
2.988 0.00999999 -0.02000001 46 138 230
3.4809997 0.00999999 0.4288889 46 138 230
3.4809997 0.00999999 -0.02000001 46 138 230
3.974 0.00999999 0.4288889 46 138 230
3.974 0.00999999 -0.02000001 46 138 230
4.467 0.00999999 0.4288889 46 138 230
4.467 0.00999999 -0.02000001 46 138 230
4.96 0.00999999 0.4288889 46 138 230
4.959999 0.00999999 -0.02000001 46 138 230
3.974 0.00999999 0.8777778 128 128 128
3.4809997 0.00999999 0.8777778 128 128 128
4.467 0.00999999 0.8777778 46 138 230
4.96 0.00999999 0.8777778 46 138 230
3.974 0.00999999 1.3266667 128 128 128
4.467 0.00999999 1.3266667 46 138 230
4.96 0.00999999 1.3266667 46 138 230
4.467 0.00999999 1.7755556 46 138 230
3.974 0.00999999 1.7755556 46 138 230
4.96 0.00999999 1.7755556 46 138 230
3.974 0.00999999 1.3266667 128 128 128
4.467 0.00999999 1.7755556 46 138 230
4.467 0.00999999 1.3266667 128 128 128
3.974 0.00999999 1.7755556 46 138 230
4.96 0.00999999 1.7755556 46 138 230
4.96 0.00999999 1.3266667 128 128 128
4.467 0.00999999 2.2244446 128 128 128
3.974 0.00999999 2.2244446 128 128 128
4.96 0.00999999 2.2244446 46 138 230
4.467 0.00999999 2.6733334 128 128 128
3.974 0.00999999 2.6733334 128 128 128
4.96 0.00999999 2.6733334 128 128 128
3.36 0.385 2.1 200 200 60
3.76 0.76 2.1 200 200 60
3.76 0.385 2.1 200 200 60
3.36 0.76 2.1 200 200 60
3.974 0.00999999 2.2244446 128 128 128
4.467 0.00999999 2.6733334 128 128 128
4.467 0.00999999 2.2244446 46 138 230
3.974 0.00999999 2.6733334 46 138 230
4.96 0.00999999 2.6733334 128 128 128
4.96 0.00999999 2.2244446 128 128 128
4.467 0.00999999 3.1222222 46 138 230
3.974 0.00999999 3.1222222 46 138 230
4.96 0.00999999 3.1222222 128 128 128
4.467 0.00999999 3.5711112 46 138 230
3.974 0.00999999 3.5711112 46 138 230
4.96 0.00999999 3.5711112 46 138 230
2.988 0.00999999 3.5711112 46 138 230
2.988 0.00999999 4.02 46 138 230
3.4809997 0.00999999 4.02 46 138 230
3.4809997 0.00999999 3.5711112 46 138 230
3.974 0.00999999 4.02 46 138 230
4.467 0.00999999 4.02 46 138 230
4.96 0.00999999 4.0199995 46 138 230
4.93 0.0 4.0399995 230 138 46
4.4799995 0.0 4.04 230 138 46
4.4799995 0.43200004 4.04 230 138 46
4.93 0.43200004 4.0399995 128 128 128
4.0299997 0.0 4.04 128 128 128
4.0299997 0.43200004 4.04 230 138 46
4.4799995 0.8640001 4.04 128 128 128
4.93 0.8640001 4.0399995 128 128 128
4.0299997 0.8640001 4.04 230 138 46
3.6299999 0.0 4.04 230 138 46
3.6299999 0.38666672 4.04 128 128 128
4.0299997 0.38666672 4.04 128 128 128
3.23 0.0 4.04 230 138 46
3.23 0.38666672 4.04 230 138 46
3.6299999 0.77333343 4.04 230 138 46
4.0299997 0.77333343 4.04 230 138 46
3.23 0.77333343 4.04 230 138 46
3.944 0.0 3.1422222 128 128 128
4.437 0.0 3.5911112 46 138 230
4.437 0.0 3.1422222 128 128 128
3.944 0.0 3.5911112 46 138 230
4.93 0.0 3.5911112 46 138 230
4.93 0.0 3.1422222 128 128 128
2.958 0.0 3.5911112 46 138 230
2.958 0.0 4.04 46 138 230
3.4509997 0.0 4.04 128 128 128
3.4509997 0.0 3.5911112 128 128 128
3.944 0.0 4.04 128 128 128
4.437 0.0 4.04 46 138 230
2.9999995 0.00999999 -0.01999998 230 138 46
3.4899995 0.00999999 -0.01999998 230 138 46
3.4899995 0.442 -0.01999998 128 128 128
2.9999995 0.442 -0.01999998 230 138 46
3.9799993 0.00999999 -0.01999998 230 138 46
3.9799993 0.442 -0.01999998 230 138 46
4.4699993 0.00999999 -0.01999998 230 138 46
4.4699993 0.442 -0.01999998 230 138 46
4.959999 0.00999999 -0.01999998 128 128 128
4.959999 0.442 -0.01999998 230 138 46
3.4899995 0.874 -0.01999998 128 128 128
2.9999995 0.874 -0.01999998 230 138 46
3.9799993 0.874 -0.01999998 128 128 128
4.4699993 0.874 -0.01999998 230 138 46
4.959999 0.874 -0.01999998 230 138 46
3.4899995 1.3060001 -0.01999998 230 138 46
2.9999995 1.3060001 -0.01999998 230 138 46
3.9799993 1.3060001 -0.01999998 128 128 128
4.4699993 1.3060001 -0.01999998 128 128 128
4.959999 1.3060001 -0.01999998 128 128 128
3.4899995 1.738 -0.01999998 230 138 46
2.9999995 1.738 -0.01999998 128 128 128
3.9799993 1.738 -0.01999998 128 128 128
4.4699993 1.738 -0.01999998 230 138 46
4.959999 1.738 -0.01999998 128 128 128
3.33 0.75 2.12 200 200 60
3.73 0.75 2.4699998 200 200 60
3.73 0.75 2.12 200 200 60
3.33 0.75 2.4699998 200 200 60
3.73 0.75 2.82 128 128 128
3.33 0.75 2.82 128 128 128
3.33 0.375 2.12 200 200 60
3.73 0.375 2.12 200 200 60
3.33 0.75 2.12 128 128 128
3.73 0.75 2.4699998 128 128 128
3.73 0.75 2.12 128 128 128
3.33 0.75 2.4699998 128 128 128
3.73 0.75 2.82 128 128 128
3.33 0.75 2.82 200 200 60
4.93 0.0 4.0399995 230 138 46
4.4799995 0.0 4.04 230 138 46
4.4799995 0.432 4.04 128 128 128
4.93 0.432 4.0399995 230 138 46
4.0299997 0.0 4.04 230 138 46
4.0299997 0.432 4.04 230 138 46
4.4799995 0.864 4.04 128 128 128
4.93 0.864 4.0399995 230 138 46
4.0299997 0.864 4.04 128 128 128
4.4799995 1.2960001 4.04 230 138 46
4.93 1.2960001 4.0399995 230 138 46
4.0299997 1.2960001 4.04 128 128 128
4.4799995 1.728 4.04 230 138 46
4.93 1.728 4.0399995 230 138 46
4.0299997 1.728 4.04 230 138 46
4.0299997 0.38666672 4.04 230 138 46
3.6299999 0.38666672 4.04 230 138 46
3.6299999 0.77333343 4.04 230 138 46
4.0299997 0.77333343 4.04 230 138 46
3.23 0.38666672 4.04 230 138 46
3.23 0.77333343 4.04 230 138 46
3.6299999 1.1600001 4.04 230 138 46
4.0299997 1.1600001 4.04 128 128 128
3.23 1.1600001 4.04 230 138 46
3.6299999 1.5600001 4.04 60 220 220
4.0299997 1.5600001 4.04 128 128 128
3.23 1.5600001 4.04 60 220 220
3.6299999 1.96 4.04 60 220 220
4.0299997 1.96 4.04 128 128 128
3.23 1.96 4.04 60 220 220
2.9999995 1.3060001 -0.01999998 230 138 46
3.4899995 1.3060001 -0.01999998 230 138 46
3.4899995 1.738 -0.01999998 230 138 46
2.9999995 1.738 -0.01999998 230 138 46
3.9799993 1.3060001 -0.01999998 230 138 46
3.9799993 1.738 -0.01999998 230 138 46
4.4699993 1.3060001 -0.01999998 230 138 46
4.4699993 1.738 -0.01999998 230 138 46
4.959999 1.3060001 -0.01999998 230 138 46
4.959999 1.738 -0.01999998 230 138 46
3.4899995 2.17 -0.01999998 230 138 46
2.9999995 2.17 -0.01999998 230 138 46
3.9799993 2.17 -0.01999998 230 138 46
4.4699993 2.17 -0.01999998 230 138 46
4.959999 2.17 -0.01999998 230 138 46
3.974 2.17 -0.01999998 46 200 120
4.467 2.17 -0.01999998 46 200 120
4.467 2.17 0.42888892 46 200 120
4.96 2.17 0.42888892 46 200 120
4.96 2.17 0.8777778 46 200 120
3.974 2.17 -0.02000001 128 128 128
4.467 2.17 -0.02000001 46 200 120
4.467 2.17 0.4288889 128 128 128
4.959999 2.17 -0.02000001 46 200 120
4.96 2.17 0.4288889 46 200 120
4.96 2.17 0.8777778 128 128 128
4.437 2.16 2.6933334 46 200 120
4.93 2.16 2.6933334 46 200 120
4.93 2.16 3.1422222 46 200 120
4.437 2.16 3.1422222 46 200 120
4.93 2.16 3.5911112 46 200 120
4.437 2.16 3.5911112 46 200 120
3.944 2.16 3.5911112 46 200 120
4.437 2.16 4.04 46 200 120
4.93 2.16 4.0399995 46 200 120
4.93 1.2960001 4.0399995 230 138 46
4.4799995 1.2960001 4.04 230 138 46
4.4799995 1.728 4.04 230 138 46
4.93 1.728 4.0399995 230 138 46
4.0299997 1.2960001 4.04 230 138 46
4.0299997 1.728 4.04 230 138 46
4.4799995 2.16 4.04 230 138 46
4.93 2.16 4.0399995 128 128 128
4.0299997 2.16 4.04 230 138 46
4.0299997 1.1600001 4.04 60 220 220
3.6299999 1.1600001 4.04 60 220 220
3.6299999 1.5600001 4.04 60 220 220
4.0299997 1.5600001 4.04 60 220 220
3.23 1.1600001 4.04 128 128 128
3.23 1.5600001 4.04 60 220 220
3.6299999 1.96 4.04 60 220 220
4.0299997 1.96 4.04 230 138 46
3.23 1.96 4.04 128 128 128
3.6299999 2.16 4.04 230 138 46
4.437 2.16 3.1422222 46 200 120
4.93 2.16 3.1422222 46 200 120
4.93 2.16 3.5911112 46 200 120
4.437 2.16 3.5911112 46 200 120
3.944 2.16 3.5911112 46 200 120
4.437 2.16 4.04 128 128 128
3.9799995 0.00999999 -0.01999998 128 128 128
4.47 0.00999999 -0.01999998 230 138 46
4.47 0.44200003 -0.01999998 230 138 46
3.9799995 0.44200003 -0.01999998 230 138 46
4.9599996 0.00999999 -0.01999998 128 128 128
4.9599996 0.44200003 -0.01999998 230 138 46
4.47 0.8740001 -0.01999998 230 138 46
3.9799995 0.8740001 -0.01999998 230 138 46
4.9599996 0.8740001 -0.01999998 230 138 46
4.96 0.00999999 0.31666666 128 128 128
4.96 0.44200003 0.31666666 230 138 46
4.96 0.00999999 0.6533333 128 128 128
4.96 0.44200003 0.6533333 230 138 46
4.96 0.8740001 0.31666666 230 138 46
4.96 0.8740001 0.6533333 230 138 46
3.9740002 0.00999999 -0.01999998 46 138 230
4.467 0.00999999 0.42888892 46 138 230
4.467 0.00999999 -0.01999998 46 138 230
3.9740002 0.00999999 0.42888892 46 138 230
4.96 0.00999999 0.42888892 46 138 230
4.467 0.00999999 0.8777778 46 138 230
3.9740002 0.00999999 0.8777778 46 138 230
4.96 0.00999999 0.8777778 128 128 128
4.96 0.00999999 0.31666663 230 138 46
4.96 0.00999999 0.6533333 230 138 46
4.96 0.44200003 0.6533333 128 128 128
4.96 0.44200003 0.31666663 128 128 128
4.96 0.00999999 0.9899999 230 138 46
4.96 0.44200003 0.9899999 230 138 46
4.96 0.8740001 0.6533333 128 128 128
4.96 0.8740001 0.31666663 128 128 128
4.96 0.8740001 0.9899999 128 128 128
4.96 0.00999999 1.3899999 128 128 128
4.96 0.3966667 1.3899999 230 138 46
4.96 0.3966667 0.9899999 230 138 46
4.96 0.00999999 1.7899998 230 138 46
4.96 0.3966667 1.7899998 128 128 128
4.96 0.7833334 1.3899999 230 138 46
4.96 0.7833334 0.9899999 128 128 128
4.96 0.7833334 1.7899998 128 128 128
3.9740002 0.00999999 -0.02000001 128 128 128
4.467 0.00999999 0.4288889 128 128 128
4.467 0.00999999 -0.02000001 46 138 230
3.9740002 0.00999999 0.4288889 128 128 128
4.96 0.00999999 0.4288889 128 128 128
4.9599996 0.00999999 -0.02000001 46 138 230
4.467 0.00999999 0.8777778 46 138 230
3.9740002 0.00999999 0.8777778 128 128 128
4.96 0.00999999 0.8777778 46 138 230
4.467 0.00999999 1.3266667 46 138 230
3.9740002 0.00999999 1.3266667 46 138 230
4.96 0.00999999 1.3266667 46 138 230
4.467 0.00999999 1.7755556 46 138 230
3.9740002 0.00999999 1.7755556 46 138 230
4.96 0.00999999 1.7755556 128 128 128
4.96 0.00999999 0.9899999 230 138 46
4.96 0.00999999 1.3899999 230 138 46
4.96 0.3966667 1.3899999 230 138 46
4.96 0.3966667 0.9899999 230 138 46
4.96 0.00999999 1.7899998 230 138 46
4.96 0.3966667 1.7899998 230 138 46
4.96 0.00999999 2.1899998 230 138 46
4.96 0.3966667 2.1899998 230 138 46
4.96 0.7833334 1.3899999 230 138 46
4.96 0.7833334 0.9899999 230 138 46
4.96 0.7833334 1.7899998 230 138 46
4.96 0.7833334 2.1899998 128 128 128
4.96 0.00999999 2.6474998 128 128 128
4.96 0.44200003 2.6474998 128 128 128
4.96 0.44200003 2.1899998 230 138 46
4.96 0.8740001 2.6474998 128 128 128
4.96 0.8740001 2.1899998 230 138 46
3.9740002 0.00999999 1.3266667 128 128 128
4.467 0.00999999 1.7755556 46 138 230
4.467 0.00999999 1.3266667 46 138 230
3.9740002 0.00999999 1.7755556 128 128 128
4.96 0.00999999 1.7755556 46 138 230
4.96 0.00999999 1.3266667 46 138 230
4.467 0.00999999 2.2244446 128 128 128
3.9740002 0.00999999 2.2244446 128 128 128
4.96 0.00999999 2.2244446 46 138 230
4.467 0.00999999 2.6733334 128 128 128
3.9740002 0.00999999 2.6733334 46 138 230
4.96 0.00999999 2.6733334 128 128 128
4.96 0.00999999 2.1899998 230 138 46
4.96 0.00999999 2.6474998 230 138 46
4.96 0.44200003 2.6474998 230 138 46
4.96 0.44200003 2.1899998 128 128 128
4.96 0.00999999 3.1049995 128 128 128
4.96 0.44200003 3.1049995 128 128 128
4.96 0.00999999 3.5624995 230 138 46
4.96 0.44200003 3.5624995 128 128 128
4.96 0.00999999 4.0199995 46 138 230
4.96 0.44200003 4.0199995 230 138 46
4.96 0.8740001 2.6474998 128 128 128
4.96 0.8740001 2.1899998 128 128 128
4.96 0.8740001 3.1049995 230 138 46
4.96 0.8740001 3.5624995 230 138 46
4.96 0.8740001 4.0199995 128 128 128
3.9740002 0.00999999 2.2244446 46 138 230
4.467 0.00999999 2.6733334 128 128 128
4.467 0.00999999 2.2244446 128 128 128
3.9740002 0.00999999 2.6733334 46 138 230
4.96 0.00999999 2.6733334 128 128 128
4.96 0.00999999 2.2244446 200 200 60
4.467 0.00999999 3.1222222 46 138 230
3.9740002 0.00999999 3.1222222 46 138 230
4.96 0.00999999 3.1222222 46 138 230
4.467 0.00999999 3.5711112 46 138 230
3.9740002 0.00999999 3.5711112 46 138 230
4.96 0.00999999 3.5711112 46 138 230
4.467 0.00999999 4.02 46 138 230
3.9740002 0.00999999 4.02 46 138 230
4.96 0.00999999 3.1049995 128 128 128
4.96 0.00999999 3.5624995 128 128 128
4.96 0.44200003 3.5624995 230 138 46
4.96 0.44200003 3.1049995 230 138 46
4.96 0.00999999 4.0199995 128 128 128
4.96 0.44200003 4.0199995 128 128 128
4.96 0.8740001 3.5624995 230 138 46
4.96 0.8740001 3.1049995 128 128 128
4.96 0.8740001 4.0199995 230 138 46
4.5099998 0.00999999 4.02 230 138 46
4.5099998 0.44200003 4.02 128 128 128
4.06 0.00999999 4.02 128 128 128
4.06 0.44200003 4.02 128 128 128
4.5099998 0.8740001 4.02 230 138 46
4.06 0.8740001 4.02 128 128 128
3.9740002 0.00999999 3.1222222 128 128 128
4.467 0.00999999 3.5711112 46 138 230
4.467 0.00999999 3.1222222 46 138 230
3.9740002 0.00999999 3.5711112 128 128 128
4.96 0.00999999 3.5711112 46 138 230
4.96 0.00999999 3.1222222 46 138 230
4.467 0.00999999 4.02 128 128 128
3.9740002 0.00999999 4.02 128 128 128
3.9799995 0.00999999 -0.01999998 128 128 128
4.47 0.00999999 -0.01999998 230 138 46
4.47 0.442 -0.01999998 230 138 46
3.9799995 0.442 -0.01999998 128 128 128
4.9599996 0.00999999 -0.01999998 230 138 46
4.9599996 0.442 -0.01999998 128 128 128
4.47 0.874 -0.01999998 230 138 46
3.9799995 0.874 -0.01999998 230 138 46
4.9599996 0.874 -0.01999998 230 138 46
4.47 1.3060001 -0.01999998 230 138 46
3.9799995 1.3060001 -0.01999998 230 138 46
4.9599996 1.3060001 -0.01999998 230 138 46
4.47 1.738 -0.01999998 230 138 46
3.9799995 1.738 -0.01999998 230 138 46
4.9599996 1.738 -0.01999998 230 138 46
4.96 0.00999999 0.31666666 230 138 46
4.96 0.442 0.31666666 230 138 46
4.96 0.00999999 0.6533333 230 138 46
4.96 0.442 0.6533333 230 138 46
4.96 0.874 0.31666666 230 138 46
4.96 0.874 0.6533333 230 138 46
4.96 1.3060001 0.31666666 230 138 46
4.96 1.3060001 0.6533333 230 138 46
4.96 1.738 0.31666666 230 138 46
4.96 1.738 0.6533333 128 128 128
4.96 0.00999999 0.31666663 128 128 128
4.96 0.00999999 0.6533333 128 128 128
4.96 0.442 0.6533333 128 128 128
4.96 0.442 0.31666663 230 138 46
4.96 0.00999999 0.9899999 230 138 46
4.96 0.442 0.9899999 128 128 128
4.96 0.874 0.6533333 230 138 46
4.96 0.874 0.31666663 230 138 46
4.96 0.874 0.9899999 128 128 128
4.96 1.3060001 0.6533333 230 138 46
4.96 1.3060001 0.31666663 230 138 46
4.96 1.3060001 0.9899999 230 138 46
4.96 1.738 0.6533333 230 138 46
4.96 1.738 0.31666663 128 128 128
4.96 1.738 0.9899999 230 138 46
4.96 0.3966667 0.9899999 230 138 46
4.96 0.3966667 1.3899999 230 138 46
4.96 0.7833334 1.3899999 230 138 46
4.96 0.7833334 0.9899999 230 138 46
4.96 0.3966667 1.7899998 230 138 46
4.96 0.7833334 1.7899998 230 138 46
4.96 1.1700001 1.3899999 230 138 46
4.96 1.1700001 0.9899999 60 220 220
4.96 1.1700001 1.7899998 230 138 46
4.96 1.57 1.3899999 128 128 128
4.96 1.57 0.9899999 60 220 220
4.96 1.57 1.7899998 128 128 128
4.96 1.97 1.3899999 128 128 128
4.96 1.97 0.9899999 60 220 220
4.96 1.97 1.7899998 128 128 128
4.96 0.3966667 0.9899999 230 138 46
4.96 0.3966667 1.3899999 230 138 46
4.96 0.7833334 1.3899999 230 138 46
4.96 0.7833334 0.9899999 230 138 46
4.96 0.3966667 1.7899998 230 138 46
4.96 0.7833334 1.7899998 230 138 46
4.96 0.3966667 2.1899998 128 128 128
4.96 0.7833334 2.1899998 230 138 46
4.96 1.1700001 1.3899999 128 128 128
4.96 1.1700001 0.9899999 128 128 128
4.96 1.1700001 1.7899998 60 220 220
4.96 1.1700001 2.1899998 230 138 46
4.96 1.57 1.3899999 128 128 128
4.96 1.57 0.9899999 128 128 128
4.96 1.57 1.7899998 60 220 220
4.96 1.57 2.1899998 60 220 220
4.96 1.97 1.3899999 128 128 128
4.96 1.97 0.9899999 128 128 128
4.96 1.97 1.7899998 60 220 220
4.96 1.97 2.1899998 128 128 128
4.96 0.00999999 2.1899998 128 128 128
4.96 0.00999999 2.6474998 128 128 128
4.96 0.442 2.6474998 230 138 46
4.96 0.442 2.1899998 230 138 46
4.96 0.874 2.6474998 128 128 128
4.96 0.874 2.1899998 128 128 128
4.96 1.3060001 2.6474998 128 128 128
4.96 1.3060001 2.1899998 128 128 128
4.96 1.738 2.6474998 128 128 128
4.96 1.738 2.1899998 128 128 128
4.96 0.00999999 2.1899998 128 128 128
4.96 0.00999999 2.6474998 230 138 46
4.96 0.442 2.6474998 230 138 46
4.96 0.442 2.1899998 230 138 46
4.96 0.00999999 3.1049995 230 138 46
4.96 0.442 3.1049995 230 138 46
4.96 0.00999999 3.5624995 230 138 46
4.96 0.442 3.5624995 230 138 46
4.96 0.00999999 4.0199995 128 128 128
4.96 0.442 4.0199995 230 138 46
4.96 0.874 2.6474998 128 128 128
4.96 0.874 2.1899998 128 128 128
4.96 0.874 3.1049995 128 128 128
4.96 0.874 3.5624995 128 128 128
4.96 0.874 4.0199995 128 128 128
4.96 1.3060001 2.6474998 230 138 46
4.96 1.3060001 2.1899998 128 128 128
4.96 1.3060001 3.1049995 230 138 46
4.96 1.3060001 3.5624995 230 138 46
4.96 1.3060001 4.0199995 230 138 46
4.96 1.738 2.6474998 128 128 128
4.96 1.738 2.1899998 128 128 128
4.96 1.738 3.1049995 230 138 46
4.96 1.738 3.5624995 128 128 128
4.96 1.738 4.0199995 128 128 128
4.96 0.00999999 3.1049995 230 138 46
4.96 0.00999999 3.5624995 230 138 46
4.96 0.442 3.5624995 230 138 46
4.96 0.442 3.1049995 230 138 46
4.96 0.00999999 4.0199995 230 138 46
4.96 0.442 4.0199995 230 138 46
4.96 0.874 3.5624995 230 138 46
4.96 0.874 3.1049995 230 138 46
4.96 0.874 4.0199995 128 128 128
4.96 1.3060001 3.5624995 128 128 128
4.96 1.3060001 3.1049995 230 138 46
4.96 1.3060001 4.0199995 128 128 128
4.96 1.738 3.5624995 230 138 46
4.96 1.738 3.1049995 230 138 46
4.96 1.738 4.0199995 128 128 128
4.5099998 0.00999999 4.02 230 138 46
4.5099998 0.442 4.02 230 138 46
4.06 0.00999999 4.02 230 138 46
4.06 0.442 4.02 230 138 46
4.5099998 0.874 4.02 128 128 128
4.06 0.874 4.02 230 138 46
4.5099998 1.3060001 4.02 230 138 46
4.06 1.3060001 4.02 230 138 46
4.5099998 1.738 4.02 230 138 46
4.06 1.738 4.02 230 138 46
3.9799995 1.3060001 -0.01999998 128 128 128
4.47 1.3060001 -0.01999998 128 128 128
4.47 1.738 -0.01999998 230 138 46
3.9799995 1.738 -0.01999998 230 138 46
4.9599996 1.3060001 -0.01999998 230 138 46
4.9599996 1.738 -0.01999998 230 138 46
4.47 2.17 -0.01999998 230 138 46
3.9799995 2.17 -0.01999998 230 138 46
4.9599996 2.17 -0.01999998 230 138 46
4.96 1.3060001 0.31666666 230 138 46
4.96 1.738 0.31666666 230 138 46
4.96 1.3060001 0.6533333 128 128 128
4.96 1.738 0.6533333 230 138 46
4.96 2.17 0.31666666 230 138 46
4.96 2.17 0.6533333 230 138 46
3.9740002 2.17 -0.01999998 46 200 120
4.467 2.17 -0.01999998 46 200 120
4.467 2.17 0.42888892 46 200 120
4.96 2.17 0.42888892 46 200 120
4.96 2.17 0.8777778 128 128 128
4.96 1.3060001 0.31666663 128 128 128
4.96 1.3060001 0.6533333 128 128 128
4.96 1.738 0.6533333 128 128 128
4.96 1.738 0.31666663 230 138 46
4.96 1.3060001 0.9899999 230 138 46
4.96 1.738 0.9899999 128 128 128
4.96 2.17 0.6533333 128 128 128
4.96 2.17 0.31666663 128 128 128
4.96 2.17 0.9899999 128 128 128
4.96 1.1700001 0.9899999 128 128 128
4.96 1.1700001 1.3899999 60 220 220
4.96 1.57 1.3899999 60 220 220
4.96 1.57 0.9899999 128 128 128
4.96 1.1700001 1.7899998 60 220 220
4.96 1.57 1.7899998 60 220 220
4.96 1.97 1.3899999 128 128 128
4.96 1.97 0.9899999 230 138 46
4.96 1.97 1.7899998 60 220 220
4.96 2.17 1.3899999 230 138 46
4.96 2.17 1.7899998 128 128 128
3.9740002 2.17 -0.02000001 46 200 120
4.467 2.17 -0.02000001 46 200 120
4.467 2.17 0.4288889 46 200 120
4.9599996 2.17 -0.02000001 46 200 120
4.96 2.17 0.4288889 46 200 120
4.96 2.17 0.8777778 46 200 120
4.96 1.1700001 0.9899999 60 220 220
4.96 1.1700001 1.3899999 60 220 220
4.96 1.57 1.3899999 128 128 128
4.96 1.57 0.9899999 60 220 220
4.96 1.1700001 1.7899998 128 128 128
4.96 1.57 1.7899998 128 128 128
4.96 1.1700001 2.1899998 60 220 220
4.96 1.57 2.1899998 60 220 220
4.96 1.97 1.3899999 128 128 128
4.96 1.97 0.9899999 230 138 46
4.96 1.97 1.7899998 128 128 128
4.96 1.97 2.1899998 128 128 128
4.96 2.17 1.3899999 230 138 46
4.96 2.17 0.9899999 230 138 46
4.96 2.17 1.7899998 230 138 46
4.96 2.17 2.1899998 230 138 46
4.96 1.3060001 2.1899998 230 138 46
4.96 1.3060001 2.6474998 230 138 46
4.96 1.738 2.6474998 230 138 46
4.96 1.738 2.1899998 230 138 46
4.96 2.17 2.6474998 230 138 46
4.96 1.3060001 2.1899998 230 138 46
4.96 1.3060001 2.6474998 230 138 46
4.96 1.738 2.6474998 230 138 46
4.96 1.738 2.1899998 230 138 46
4.96 1.3060001 3.1049995 230 138 46
4.96 1.738 3.1049995 230 138 46
4.96 1.3060001 3.5624995 230 138 46
4.96 1.738 3.5624995 230 138 46
4.96 1.3060001 4.0199995 230 138 46
4.96 1.738 4.0199995 230 138 46
4.96 2.17 2.6474998 128 128 128
4.96 2.17 2.1899998 128 128 128
4.96 2.17 3.1049995 230 138 46
4.96 2.17 3.5624995 230 138 46
4.96 2.17 4.0199995 230 138 46
4.467 2.17 2.6733334 128 128 128
4.96 2.17 2.6733334 128 128 128
4.96 2.17 3.1222222 46 200 120
4.467 2.17 3.1222222 46 200 120
4.96 2.17 3.5711112 128 128 128
4.467 2.17 3.5711112 128 128 128
3.9740002 2.17 3.5711112 46 200 120
4.467 2.17 4.02 46 200 120
4.96 1.3060001 3.1049995 230 138 46
4.96 1.3060001 3.5624995 230 138 46
4.96 1.738 3.5624995 230 138 46
4.96 1.738 3.1049995 230 138 46
4.96 1.3060001 4.0199995 128 128 128
4.96 1.738 4.0199995 128 128 128
4.96 2.17 3.5624995 230 138 46
4.96 2.17 3.1049995 230 138 46
4.96 2.17 4.0199995 128 128 128
4.5099998 1.3060001 4.02 230 138 46
4.5099998 1.738 4.02 128 128 128
4.06 1.3060001 4.02 230 138 46
4.06 1.738 4.02 230 138 46
4.5099998 2.17 4.02 128 128 128
4.06 2.17 4.02 230 138 46
4.467 2.17 3.1222222 46 200 120
4.96 2.17 3.1222222 200 60 200
4.96 2.17 3.5711112 46 200 120
4.467 2.17 3.5711112 46 200 120
3.9740002 2.17 3.5711112 128 128 128
4.467 2.17 4.02 128 128 128
3 0 1 2
3 0 2 3
3 3 2 4
3 3 4 5
3 5 4 6
3 7 8 9
3 7 9 10
3 11 10 12
3 11 12 13
3 10 9 14
3 10 14 12
3 8 15 16
3 8 16 17
3 15 18 19
3 15 19 16
3 17 16 20
3 17 20 21
3 16 19 22
3 16 22 20
3 23 24 25
3 23 25 26
3 27 26 28
3 27 28 29
3 26 25 30
3 26 30 28
3 29 28 31
3 29 31 32
3 28 30 33
3 28 33 31
3 32 31 34
3 31 33 35
3 31 35 34
3 24 36 37
3 24 37 38
3 36 39 40
3 36 40 37
3 38 37 41
3 38 41 42
3 37 40 43
3 37 43 41
3 42 41 44
3 42 44 45
3 41 43 46
3 41 46 44
3 45 44 47
3 45 47 48
3 44 46 49
3 44 49 47
3 50 51 52
3 51 53 54
3 51 54 52
3 52 54 55
3 56 57 58
3 56 58 59
3 57 60 61
3 57 61 58
3 59 58 62
3 59 62 63
3 58 61 64
3 58 64 62
3 65 66 67
3 65 67 68
3 66 69 70
3 66 70 67
3 68 67 71
3 68 71 72
3 67 70 73
3 67 73 71
3 69 74 75
3 69 75 76
3 74 77 78
3 74 78 75
3 76 75 79
3 76 79 80
3 75 78 81
3 75 81 79
3 82 83 84
3 84 85 86
3 84 83 85
3 83 87 85
3 83 88 87
3 89 90 91
3 91 92 93
3 91 90 92
3 90 94 92
3 90 95 94
3 95 96 94
3 97 98 99
3 97 99 100
3 100 99 101
3 100 101 102
3 103 104 105
3 106 105 107
3 108 109 110
3 108 110 111
3 109 112 113
3 109 113 110
3 111 110 114
3 111 114 115
3 110 113 116
3 110 116 114
3 115 114 117
3 115 117 118
3 114 116 119
3 114 119 117
3 118 117 120
3 118 120 121
3 117 119 122
3 117 122 120
3 112 123 124
3 112 124 125
3 123 126 127
3 123 127 124
3 125 124 128
3 125 128 129
3 124 127 130
3 124 130 128
3 129 128 131
3 129 131 132
3 128 130 133
3 128 133 131
3 132 131 134
3 132 134 135
3 131 133 136
3 131 136 134
3 137 138 139
3 137 140 138
3 141 142 140
3 141 143 142
3 140 144 138
3 140 142 144
3 145 139 146
3 145 137 139
3 147 148 149
3 147 150 148
3 151 152 150
3 151 153 152
3 150 154 148
3 150 152 154
3 155 156 157
3 155 157 158
3 158 157 159
3 158 159 160
3 160 159 161
3 160 161 162
3 162 161 163
3 162 163 164
3 165 166 167
3 165 167 168
3 166 169 170
3 166 170 167
3 168 167 171
3 168 171 172
3 167 170 173
3 167 173 171
3 174 175 176
3 174 176 177
3 175 178 179
3 175 179 176
3 177 176 180
3 177 180 181
3 176 179 182
3 176 182 180
3 183 184 185
3 183 185 186
3 186 185 187
3 186 187 188
3 189 190 191
3 189 191 192
3 190 193 194
3 190 194 191
3 193 195 196
3 193 196 194
3 195 197 198
3 195 198 196
3 192 191 199
3 192 199 200
3 191 194 201
3 191 201 199
3 194 196 202
3 194 202 201
3 196 198 203
3 196 203 202
3 204 205 206
3 206 207 208
3 206 205 207
3 208 209 210
3 208 207 209
3 210 211 197
3 210 209 211
3 205 212 207
3 205 213 212
3 207 214 209
3 207 212 214
3 209 215 211
3 209 214 215
3 216 217 218
3 218 219 220
3 218 217 219
3 220 221 222
3 220 219 221
3 222 223 224
3 222 221 223
3 217 225 219
3 217 226 225
3 219 227 221
3 219 225 227
3 221 228 223
3 221 227 228
3 226 229 225
3 225 230 227
3 225 229 230
3 227 231 228
3 227 230 231
3 229 232 230
3 229 233 232
3 230 234 231
3 230 232 234
3 235 236 237
3 235 238 236
3 237 239 240
3 237 236 239
3 238 241 236
3 238 242 241
3 236 243 239
3 236 241 243
3 242 244 241
3 242 245 244
3 241 246 243
3 241 244 246
3 247 248 249
3 247 250 248
3 251 252 253
3 251 254 252
3 253 255 256
3 253 252 255
3 254 257 252
3 254 258 257
3 252 259 255
3 252 257 259
3 258 260 257
3 258 261 260
3 257 262 259
3 257 260 262
3 263 264 265
3 266 265 267
3 261 268 260
3 261 267 268
3 260 269 262
3 260 268 269
3 270 271 272
3 270 272 273
3 271 274 275
3 271 275 272
3 273 272 276
3 273 276 277
3 272 275 278
3 272 278 276
3 274 279 280
3 274 280 281
3 279 282 283
3 279 283 280
3 281 280 284
3 281 284 285
3 280 283 286
3 280 286 284
3 287 288 289
3 287 290 288
3 289 291 292
3 289 288 291
3 293 294 295
3 296 295 297
3 290 298 288
3 290 297 298
3 288 270 291
3 288 298 270
3 299 300 301
3 299 301 302
3 300 303 304
3 300 304 301
3 303 305 306
3 303 306 304
3 305 307 308
3 305 308 306
3 302 301 309
3 302 309 310
3 301 304 311
3 301 311 309
3 304 306 312
3 304 312 311
3 306 308 313
3 306 313 312
3 310 309 314
3 310 314 315
3 309 311 316
3 309 316 314
3 311 312 317
3 311 317 316
3 312 313 318
3 312 318 317
3 315 314 319
3 315 319 320
3 314 316 321
3 314 321 319
3 316 317 322
3 316 322 321
3 317 318 323
3 317 323 322
3 324 325 326
3 324 327 325
3 327 328 325
3 327 329 328
3 330 326 331
3 330 324 326
3 332 333 334
3 332 335 333
3 335 336 333
3 335 337 336
3 338 339 340
3 338 340 341
3 339 342 343
3 339 343 340
3 341 340 344
3 341 344 345
3 340 343 346
3 340 346 344
3 345 344 347
3 345 347 348
3 344 346 349
3 344 349 347
3 348 347 350
3 348 350 351
3 347 349 352
3 347 352 350
3 353 354 355
3 353 355 356
3 354 357 358
3 354 358 355
3 356 355 359
3 356 359 360
3 355 358 361
3 355 361 359
3 360 359 362
3 360 362 363
3 359 361 364
3 359 364 362
3 363 362 365
3 363 365 366
3 362 364 367
3 362 367 365
3 368 369 370
3 368 370 371
3 369 372 373
3 369 373 370
3 372 374 375
3 372 375 373
3 374 376 377
3 374 377 375
3 371 370 378
3 371 378 379
3 370 373 380
3 370 380 378
3 373 375 381
3 373 381 380
3 375 377 382
3 375 382 381
3 383 384 385
3 384 382 386
3 384 386 385
3 385 386 387
3 388 389 390
3 389 391 392
3 389 392 390
3 390 392 393
3 394 395 396
3 394 396 397
3 397 396 398
3 397 398 399
3 400 399 401
3 399 398 402
3 399 402 401
3 403 404 405
3 403 405 406
3 404 407 408
3 404 408 405
3 406 405 409
3 406 409 410
3 405 408 411
3 405 411 409
3 412 413 414
3 412 414 415
3 413 416 417
3 413 417 414
3 415 414 418
3 415 418 419
3 414 417 420
3 414 420 418
3 419 418 421
3 419 421 411
3 422 423 424
3 422 424 425
3 426 425 427
3 425 424 410
3 425 410 427
3 428 429 430
3 428 430 431
3 429 432 433
3 429 433 430
3 431 430 434
3 431 434 435
3 430 433 436
3 430 436 434
3 432 437 438
3 432 438 433
3 437 439 440
3 437 440 438
3 433 438 441
3 433 441 436
3 438 440 442
3 438 442 441
3 443 444 445
3 443 446 444
3 445 447 432
3 445 444 447
3 446 448 444
3 446 449 448
3 444 450 447
3 444 448 450
3 451 452 453
3 451 453 454
3 452 455 456
3 452 456 453
3 454 453 457
3 454 457 458
3 453 456 459
3 453 459 457
3 455 460 461
3 455 461 462
3 460 463 464
3 460 464 461
3 462 461 465
3 462 465 466
3 461 464 467
3 461 467 465
3 468 469 470
3 468 471 469
3 470 472 473
3 470 469 472
3 471 474 469
3 471 475 474
3 469 476 472
3 469 474 476
3 475 477 474
3 475 478 477
3 474 479 476
3 474 477 479
3 478 480 477
3 478 481 480
3 477 482 479
3 477 480 482
3 483 484 485
3 483 485 486
3 484 487 488
3 484 488 485
3 487 489 490
3 487 490 488
3 486 485 491
3 486 491 492
3 485 488 493
3 485 493 491
3 488 490 494
3 488 494 493
3 489 495 496
3 489 496 497
3 497 496 498
3 497 498 499
3 500 501 502
3 500 503 501
3 502 504 505
3 502 501 504
3 503 506 501
3 503 507 506
3 501 508 504
3 501 506 508
3 507 509 506
3 507 510 509
3 506 511 508
3 506 509 511
3 512 513 514
3 512 514 515
3 513 516 517
3 513 517 514
3 516 518 519
3 516 519 517
3 518 520 521
3 518 521 519
3 515 514 522
3 515 522 523
3 514 517 524
3 514 524 522
3 517 519 525
3 517 525 524
3 519 521 526
3 519 526 525
3 527 528 529
3 527 530 528
3 529 531 532
3 529 528 531
3 530 533 528
3 530 534 533
3 528 535 531
3 528 533 535
3 534 536 533
3 534 537 536
3 533 538 535
3 533 536 538
3 537 539 536
3 537 540 539
3 536 520 538
3 536 539 520
3 541 542 543
3 541 543 544
3 542 545 546
3 542 546 543
3 544 543 547
3 544 547 548
3 543 546 549
3 543 549 547
3 545 550 551
3 545 551 546
3 550 552 553
3 550 553 551
3 546 551 554
3 546 554 549
3 551 553 555
3 551 555 554
3 556 557 558
3 556 559 557
3 558 560 561
3 558 557 560
3 559 562 557
3 559 563 562
3 557 545 560
3 557 562 545
3 564 565 566
3 564 566 567
3 565 568 569
3 565 569 566
3 567 566 570
3 567 570 571
3 566 569 572
3 566 572 570
3 571 570 573
3 571 573 574
3 570 572 575
3 570 575 573
3 574 573 576
3 574 576 577
3 573 575 578
3 573 578 576
3 568 579 580
3 568 580 569
3 579 581 582
3 579 582 580
3 569 580 583
3 569 583 572
3 580 582 584
3 580 584 583
3 572 583 585
3 572 585 575
3 583 584 586
3 583 586 585
3 575 585 587
3 575 587 578
3 585 586 588
3 585 588 587
3 589 590 591
3 589 591 592
3 590 593 594
3 590 594 591
3 592 591 595
3 592 595 596
3 591 594 597
3 591 597 595
3 596 595 598
3 596 598 599
3 595 597 600
3 595 600 598
3 599 598 601
3 599 601 602
3 598 600 603
3 598 603 601
3 604 605 606
3 604 606 607
3 605 608 609
3 605 609 606
3 607 606 610
3 607 610 611
3 606 609 612
3 606 612 610
3 611 610 613
3 611 613 614
3 610 612 615
3 610 615 613
3 614 613 616
3 614 616 617
3 613 615 618
3 613 618 616
3 619 620 621
3 619 621 622
3 620 623 624
3 620 624 621
3 623 625 626
3 623 626 624
3 622 621 627
3 622 627 628
3 621 624 629
3 621 629 627
3 624 626 630
3 624 630 629
3 628 627 631
3 628 631 632
3 627 629 633
3 627 633 631
3 629 630 634
3 629 634 633
3 632 631 635
3 632 635 636
3 631 633 637
3 631 637 635
3 633 634 638
3 633 638 637
3 639 640 641
3 639 641 642
3 642 641 643
3 642 643 644
3 644 643 645
3 644 645 646
3 646 645 647
3 646 647 648
3 649 650 651
3 649 651 652
3 650 653 654
3 650 654 651
3 653 655 656
3 653 656 654
3 655 657 658
3 655 658 656
3 652 651 659
3 652 659 660
3 651 654 661
3 651 661 659
3 654 656 662
3 654 662 661
3 656 658 663
3 656 663 662
3 660 659 664
3 660 664 665
3 659 661 666
3 659 666 664
3 661 662 667
3 661 667 666
3 662 663 668
3 662 668 667
3 665 664 669
3 665 669 670
3 664 666 671
3 664 671 669
3 666 667 672
3 666 672 671
3 667 668 673
3 667 673 672
3 674 675 676
3 674 676 677
3 675 678 679
3 675 679 676
3 677 676 680
3 677 680 681
3 676 679 682
3 676 682 680
3 681 680 683
3 681 683 684
3 680 682 685
3 680 685 683
3 684 683 686
3 684 686 687
3 683 685 688
3 683 688 686
3 678 689 690
3 678 690 679
3 689 691 692
3 689 692 690
3 679 690 693
3 679 693 682
3 690 692 694
3 690 694 693
3 682 693 695
3 682 695 685
3 693 694 696
3 693 696 695
3 685 695 697
3 685 697 688
3 695 696 698
3 695 698 697
3 699 700 701
3 699 701 702
3 700 703 704
3 700 704 701
3 702 701 705
3 702 705 706
3 701 704 707
3 701 707 705
3 703 708 709
3 703 709 704
3 708 710 711
3 708 711 709
3 704 709 712
3 704 712 707
3 709 711 713
3 709 713 712
3 714 715 716
3 715 707 717
3 715 717 716
3 716 717 718
3 719 720 721
3 719 721 722
3 720 723 724
3 720 724 721
3 722 721 725
3 722 725 726
3 721 724 727
3 721 727 725
3 728 729 730
3 728 730 731
3 729 732 733
3 729 733 730
3 731 730 734
3 731 734 735
3 730 733 736
3 730 736 734
3 735 734 737
3 735 737 727
3 734 736 738
3 734 738 737
3 739 740 741
3 740 742 743
3 740 743 741
3 741 743 744
3 745 746 747
3 745 747 748
3 746 749 750
3 746 750 747
3 749 751 752
3 749 752 750
3 748 747 753
3 748 753 754
3 747 750 755
3 747 755 753
3 750 752 756
3 750 756 755
3 754 753 757
3 754 757 758
3 753 755 759
3 753 759 757
3 755 756 760
3 755 760 759
3 761 762 763
3 761 763 764
3 764 763 765
3 764 765 760
3 766 767 768
3 766 768 769
3 767 770 771
3 767 771 768
3 770 772 773
3 770 773 771
3 772 774 775
3 772 775 773
3 769 768 776
3 769 776 777
3 768 771 778
3 768 778 776
3 771 773 779
3 771 779 778
3 773 775 780
3 773 780 779
3 781 782 783
3 781 783 784
3 784 783 785
3 784 785 786
3 787 786 788
3 786 785 780
3 786 780 788
3 789 790 791
3 789 791 792
3 790 793 794
3 790 794 791
3 792 791 795
3 792 795 796
3 791 794 797
3 791 797 795
3 793 798 799
3 793 799 794
3 798 800 801
3 798 801 799
3 794 799 802
3 794 802 797
3 799 801 803
3 799 803 802
3 804 805 806
3 804 806 807
3 808 807 809
3 807 806 797
3 807 797 809
